<svg width="128" height="60" viewBox="0 0 128 60" fill="none" xmlns="http://www.w3.org/2000/svg">
<g clip-path="url(#clip0_46_7)">
<mask id="mask0_46_7" style="mask-type:alpha" maskUnits="userSpaceOnUse" x="0" y="0" width="56" height="61">
<path d="M41.0574 23.4239C41.0574 26.1697 41.0574 28.9173 41.0574 31.6706C41.0574 32.6452 40.5596 33.2506 39.7124 33.6029C38.9367 33.9272 38.3149 33.6517 37.6706 33.1306C34.7741 30.7822 31.4719 29.3203 27.7526 28.9005C24.7471 28.5631 21.7529 28.5781 18.8283 29.4253C13.9857 30.8291 10.1519 33.5767 8.04428 38.2342C6.77679 41.0281 6.49382 44.1677 7.24138 47.1424C7.98894 50.1172 9.72306 52.7521 12.1618 54.6188C15.0065 56.8536 18.5212 58.07 22.1418 58.073C26.7477 58.1292 31.1582 57.2896 35.0709 54.6994C38.5873 52.3753 41.0818 49.146 43.1049 45.5156C43.227 45.2926 43.2288 44.8446 43.6083 45.0152C43.8957 45.1426 43.6515 45.4481 43.5501 45.6618C41.4613 50.1 38.6831 53.9834 34.5055 56.7198C31.3122 58.8002 27.7545 59.7186 23.9995 59.9641C20.3373 60.2197 16.6703 59.5399 13.3445 57.9888C10.0188 56.4377 7.14409 54.0664 4.99186 51.099C0.73913 45.2588 -0.611448 38.729 0.250744 31.6387C0.953271 25.8567 3.17356 20.6726 6.37062 15.8764C8.70605 12.365 11.6288 9.2801 15.0113 6.75635C20.887 2.36875 27.3957 -0.307663 34.8774 0.0297004C37.8449 0.170012 40.75 0.929147 43.4054 2.25817C47.7258 4.37981 50.9848 7.57727 53.2671 11.7549C55.4291 15.7171 56.1749 20.0016 55.8368 24.4829C55.7654 25.4463 55.6264 26.4059 55.5118 27.3655C55.4836 27.6091 55.4817 27.9634 55.1943 27.9709C54.8187 27.9802 54.9689 27.596 54.9501 27.3861C54.5444 22.4831 52.696 18.3485 48.4696 15.5503C46.8266 14.4653 44.9849 13.7149 43.0504 13.3424C41.9233 13.1231 41.2114 13.811 41.172 15.0948C41.1213 17.0928 41.1269 19.0907 41.1138 21.0924C41.1138 21.874 41.1138 22.6536 41.1138 23.4352L41.0574 23.4239Z" fill="#00A8D6"/>
</mask>
<g mask="url(#mask0_46_7)">
<rect x="-37.5679" y="-11.3445" width="104.608" height="71.3446" fill="#00A8D6"/>
</g>
</g>
<path d="M106.91 22.2622C102.827 23.9287 100.035 27.2201 99.3686 31.0948C99.1187 32.6364 98.952 32.8864 98.0771 32.8864C97.4521 32.8864 97.0771 33.1363 97.0771 33.5113C97.0771 33.8863 97.4521 34.1363 98.0771 34.1363C99.1187 34.1363 99.577 34.8029 99.577 36.3028C99.577 37.511 101.827 40.9274 103.452 42.1773C105.91 44.0522 108.451 45.0937 111.118 45.3021C114.409 45.552 116.951 44.8438 119.95 42.8439C121.825 41.594 122.617 40.7191 123.658 38.6776C124.408 37.261 124.992 35.6778 124.992 35.1362C124.992 34.3029 125.2 34.1363 126.242 34.1363C127.825 34.1363 127.95 33.0113 126.408 32.803C125.45 32.7197 125.2 32.3864 124.825 30.7615C124.158 28.1367 122.409 25.3036 120.617 23.9704C116.909 21.1373 111.284 20.429 106.91 22.2622ZM115.659 23.2621C118.117 24.762 120.409 28.9283 120.409 31.9281V32.8864H112.284C102.993 32.8864 103.243 33.0113 104.368 29.47C105.243 26.8868 106.993 24.3454 108.618 23.2204C110.201 22.1789 113.951 22.2205 115.659 23.2621ZM120.242 35.6778C119.7 38.6776 117.992 41.469 115.909 42.8856C114.201 44.0522 113.659 44.1771 111.743 44.0105C110.118 43.8855 109.201 43.5522 107.993 42.5939C106.368 41.3024 104.41 37.8026 103.952 35.4695L103.66 34.1363H112.076H120.492L120.242 35.6778Z" fill="white"/>
<path d="M73.3301 33.303V44.9688H79.7046C85.8291 44.9688 86.1208 44.9271 88.5372 43.7605C91.2037 42.5106 92.7452 40.9691 94.2868 38.136C95.495 35.8445 95.62 29.2617 94.4534 27.1785C92.1203 22.8455 88.7456 21.6372 79.2046 21.6372H73.3301V33.303ZM85.7874 23.5121C87.329 24.3037 89.3288 26.8452 89.9955 28.8867C90.3288 29.8866 90.4538 31.8031 90.3288 33.928C90.1621 36.7611 89.9538 37.7193 88.8705 39.5942C87.204 42.5523 85.1208 43.6355 81.0378 43.7605L78.1214 43.8855L77.9964 33.678C77.9547 28.0951 77.9964 23.2621 78.1214 22.9288C78.413 22.1789 84.0376 22.5955 85.7874 23.5121Z" fill="white"/>
<path d="M33.4167 29.5533L31.6668 30.8032V29.7616C31.6668 28.8034 31.5418 28.72 29.5837 28.72H27.5005V36.8444V44.9688H29.542H31.5835L31.7502 39.2192C31.9168 33.0947 32.3334 31.5948 34.125 31.0115C36.5831 30.2616 37.4997 32.6364 37.4997 39.8442V44.9688H39.5412H41.5827L41.7494 38.8859L41.8744 32.803L43.041 31.8031C43.8742 31.0948 44.5408 30.8449 45.1241 31.0532C47.124 31.6365 47.2906 32.1364 47.4156 38.7193L47.5406 44.9688H49.8738H52.1652L51.9986 38.1776C51.8319 30.8865 51.6236 29.9699 49.5821 28.9283C47.249 27.7201 44.1659 28.3034 42.3327 30.3449L41.5827 31.1782L40.2078 29.7616C38.3746 27.8034 35.9165 27.7201 33.4167 29.5533Z" fill="white"/>
<path d="M54.5802 29.5532C54.9969 30.3032 56.9134 34.9278 59.7882 42.0523L60.7047 44.3854L59.0799 48.3018C58.1633 50.4683 57.2883 52.6765 57.08 53.1348C56.7884 53.8847 56.83 54.0097 57.4967 53.843C57.9133 53.7181 58.4966 53.0514 58.7882 52.3432C59.0382 51.5932 60.2464 48.6768 61.4547 45.802C68.9958 27.845 68.6625 28.72 67.8292 28.72C67.3709 28.72 66.121 31.3448 63.7045 37.4276C63.4545 38.0109 63.1212 38.2609 62.9546 38.0526C62.7463 37.8443 61.8297 35.7194 60.9131 33.303L59.2049 28.9283L56.6634 28.8033C54.2052 28.6783 54.1219 28.72 54.5802 29.5532Z" fill="white"/>
<defs>
<clipPath id="clip0_46_7">
<rect width="55.9091" height="60" fill="white"/>
</clipPath>
</defs>
</svg>
