<svg width="128" height="60" viewBox="0 0 128 60" fill="none" xmlns="http://www.w3.org/2000/svg">
<g clip-path="url(#clip0_63_25)">
<mask id="mask0_63_25" style="mask-type:alpha" maskUnits="userSpaceOnUse" x="0" y="0" width="56" height="61">
<path d="M41.0581 23.4242C41.0581 26.17 41.0581 28.9176 41.0581 31.6709C41.0581 32.6455 40.5603 33.2509 39.7132 33.6032C38.9374 33.9275 38.3156 33.652 37.6713 33.1309C34.7748 30.7825 31.4726 29.3206 27.7533 28.9008C24.7479 28.5634 21.7537 28.5784 18.829 29.4256C13.9864 30.8294 10.1526 33.577 8.04501 38.2345C6.77753 41.0284 6.49455 44.168 7.24211 47.1427C7.98967 50.1174 9.72379 52.7524 12.1625 54.6191C15.0072 56.8538 18.5219 58.0703 22.1425 58.0733C26.7484 58.1295 31.1589 57.2899 35.0716 54.6997C38.588 52.3756 41.0825 49.1463 43.1056 45.5159C43.2277 45.2928 43.2296 44.8449 43.609 45.0155C43.8964 45.1429 43.6522 45.4484 43.5508 45.6621C41.462 50.1003 38.6838 53.9837 34.5062 56.7201C31.3129 58.8005 27.7552 59.7189 24.0002 59.9644C20.3381 60.22 16.671 59.5402 13.3452 57.9891C10.0195 56.4379 7.14482 54.0667 4.99259 51.0992C0.739862 45.2591 -0.610715 38.7293 0.251476 31.639C0.954003 25.857 3.17429 20.6729 6.37135 15.8767C8.70678 12.3653 11.6295 9.28038 15.012 6.75663C20.8877 2.36904 27.3964 -0.307373 34.8781 0.0299903C37.8456 0.170302 40.7507 0.929437 43.4061 2.25846C47.7265 4.3801 50.9855 7.57756 53.2678 11.7552C55.4299 15.7174 56.1756 20.0019 55.8375 24.4832C55.7661 25.4465 55.6271 26.4062 55.5125 27.3658C55.4843 27.6094 55.4825 27.9636 55.1951 27.9711C54.8194 27.9805 54.9696 27.5963 54.9509 27.3864C54.5451 22.4834 52.6968 18.3488 48.4703 15.5506C46.8274 14.4656 44.9857 13.7152 43.0511 13.3427C41.9241 13.1234 41.2121 13.8113 41.1727 15.0951C41.122 17.0931 41.1276 19.091 41.1145 21.0927C41.1145 21.8742 41.1145 22.6539 41.1145 23.4355L41.0581 23.4242Z" fill="#00A8D6"/>
</mask>
<g mask="url(#mask0_63_25)">
<rect x="-37.5679" y="-11.3445" width="104.608" height="71.3445" fill="#00A8D6"/>
</g>
</g>
<path d="M106.91 22.2622C102.827 23.9287 100.036 27.2202 99.3691 31.0949C99.1191 32.6364 98.9525 32.8864 98.0776 32.8864C97.4526 32.8864 97.0776 33.1364 97.0776 33.5113C97.0776 33.8863 97.4526 34.1363 98.0776 34.1363C99.1191 34.1363 99.5774 34.8029 99.5774 36.3028C99.5774 37.511 101.827 40.9274 103.452 42.1773C105.91 44.0522 108.452 45.0938 111.118 45.3021C114.41 45.5521 116.951 44.8438 119.951 42.8439C121.826 41.594 122.617 40.7191 123.659 38.6776C124.409 37.261 124.992 35.6778 124.992 35.1362C124.992 34.3029 125.2 34.1363 126.242 34.1363C127.825 34.1363 127.95 33.0114 126.409 32.8031C125.45 32.7197 125.2 32.3864 124.825 30.7615C124.159 28.1367 122.409 25.3036 120.617 23.9704C116.909 21.1373 111.285 20.429 106.91 22.2622ZM115.66 23.2621C118.118 24.762 120.409 28.9284 120.409 31.9281V32.8864H112.285C102.994 32.8864 103.244 33.0114 104.369 29.47C105.244 26.8868 106.994 24.3454 108.618 23.2205C110.202 22.1789 113.951 22.2205 115.66 23.2621ZM120.243 35.6778C119.701 38.6776 117.993 41.4691 115.91 42.8856C114.201 44.0522 113.66 44.1772 111.743 44.0105C110.118 43.8855 109.202 43.5522 107.993 42.594C106.369 41.3024 104.41 37.8027 103.952 35.4695L103.66 34.1363H112.076H120.492L120.243 35.6778Z" fill="#231F20"/>
<path d="M73.3301 33.303V44.9688H79.7046C85.8291 44.9688 86.1208 44.9271 88.5372 43.7605C91.2037 42.5106 92.7452 40.9691 94.2868 38.1359C95.495 35.8445 95.62 29.2616 94.4534 27.1785C92.1203 22.8455 88.7456 21.6372 79.2046 21.6372H73.3301V33.303ZM85.7874 23.5121C87.329 24.3037 89.3288 26.8452 89.9955 28.8867C90.3288 29.8866 90.4538 31.8031 90.3288 33.9279C90.1621 36.7611 89.9538 37.7193 88.8705 39.5942C87.204 42.5523 85.1208 43.6355 81.0378 43.7605L78.1214 43.8855L77.9964 33.678C77.9547 28.0951 77.9964 23.2621 78.1214 22.9288C78.413 22.1788 84.0376 22.5955 85.7874 23.5121Z" fill="#231F20"/>
<path d="M33.4162 29.5533L31.6663 30.8032V29.7616C31.6663 28.8033 31.5414 28.72 29.5832 28.72H27.5V36.8444V44.9688H29.5415H31.583L31.7497 39.2192C31.9163 33.0947 32.333 31.5948 34.1245 31.0115C36.5826 30.2616 37.4992 32.6364 37.4992 39.8441V44.9688H39.5407H41.5822L41.7489 38.8859L41.8739 32.803L43.0405 31.8031C43.8737 31.0948 44.5403 30.8448 45.1236 31.0532C47.1235 31.6364 47.2901 32.1364 47.4151 38.7192L47.5401 44.9688H49.8733H52.1648L51.9981 38.1776C51.8314 30.8865 51.6231 29.9699 49.5816 28.9283C47.2485 27.7201 44.1654 28.3034 42.3322 30.3449L41.5822 31.1782L40.2073 29.7616C38.3742 27.8034 35.916 27.7201 33.4162 29.5533Z" fill="#231F20"/>
<path d="M54.5807 29.5533C54.9973 30.3032 56.9139 34.9278 59.7886 42.0523L60.7052 44.3854L59.0804 48.3018C58.1638 50.4683 57.2888 52.6765 57.0805 53.1348C56.7889 53.8847 56.8305 54.0097 57.4972 53.843C57.9138 53.7181 58.4971 53.0514 58.7887 52.3432C59.0387 51.5932 60.2469 48.6768 61.4552 45.802C68.9963 27.8451 68.663 28.72 67.8297 28.72C67.3714 28.72 66.1215 31.3448 63.705 37.4276C63.455 38.0109 63.1217 38.2609 62.9551 38.0526C62.7467 37.8443 61.8301 35.7194 60.9136 33.303L59.2054 28.9283L56.6639 28.8033C54.2057 28.6783 54.1224 28.72 54.5807 29.5533Z" fill="#231F20"/>
<defs>
<clipPath id="clip0_63_25">
<rect width="55.9091" height="60" fill="white"/>
</clipPath>
</defs>
</svg>
